<?xml version="1.0" encoding="utf-8"?>
<!-- Generator: Adobe Illustrator 27.0.0, SVG Export Plug-In . SVG Version: 6.00 Build 0)  -->
<svg version="1.1" id="Layer_1" xmlns="http://www.w3.org/2000/svg" xmlns:xlink="http://www.w3.org/1999/xlink" x="0px" y="0px"
	 viewBox="0 0 21 21" style="enable-background:new 0 0 21 21;" xml:space="preserve">
<style type="text/css">
	.st0{opacity:0.15;enable-background:new    ;}
	.st1{fill:#FFFFFF;enable-background:new    ;}
</style>
<path class="st0" d="M10.5,2.3c0.4,0,0.8,0.2,0.9,0.6l2.1,4.2l4.6,0.7c0.4,0.1,0.7,0.3,0.8,0.7c0.1,0.4,0,0.8-0.3,1l-3.3,3.3
	l0.8,4.7c0.1,0.4-0.1,0.8-0.4,1c-0.3,0.2-0.7,0.3-1.1,0.1l-4.1-2.2l-4.1,2.2c-0.3,0.2-0.8,0.2-1.1-0.1s-0.5-0.6-0.4-1l0.8-4.7
	L2.4,9.5C2.1,9.3,2,8.9,2.1,8.5c0.1-0.4,0.4-0.6,0.8-0.7l4.6-0.7l2.1-4.2C9.8,2.5,10.1,2.3,10.5,2.3L10.5,2.3z"/>
<path class="st1" d="M9.7,7.6v3.6c0,0.4,0.3,0.8,0.8,0.8s0.8-0.3,0.8-0.8V7.6c0-0.4-0.3-0.8-0.8-0.8S9.7,7.2,9.7,7.6z"/>
<circle class="st1" cx="10.5" cy="14" r="1"/>
</svg>
