<?xml version="1.0" encoding="utf-8"?>
<!-- Generator: Adobe Illustrator 27.0.0, SVG Export Plug-In . SVG Version: 6.00 Build 0)  -->
<svg version="1.1" id="Layer_1" xmlns="http://www.w3.org/2000/svg" xmlns:xlink="http://www.w3.org/1999/xlink" x="0px" y="0px"
	 viewBox="0 0 21 21" style="enable-background:new 0 0 21 21;" xml:space="preserve">
<style type="text/css">
	.st0{fill:#FFFFFF;}
</style>
<path class="st0" d="M10.8,13.5c-0.4,0-0.7,0.3-0.7,0.8c0,0.4,0.3,0.8,0.7,0.8c0.4,0,0.7-0.3,0.7-0.8C11.5,13.9,11.2,13.5,10.8,13.5
	z M10.8,12.2c0.3,0,0.5-0.2,0.5-0.5V7.1c0-0.3-0.2-0.5-0.5-0.5s-0.5,0.2-0.5,0.5v4.6C10.3,12,10.5,12.2,10.8,12.2z M18.7,14.7
	L12.3,3.9C12,3.3,11.4,3,10.8,3c-0.6,0-1.2,0.3-1.6,0.9L2.8,14.7c-0.3,0.5-0.3,1.2,0,1.7c0.3,0.6,0.9,0.9,1.6,0.9h12.8
	c0.7,0,1.2-0.3,1.6-0.9C19.1,15.9,19.1,15.3,18.7,14.7z M17.8,15.9c-0.1,0.3-0.4,0.4-0.7,0.4H4.4c-0.3,0-0.5-0.1-0.7-0.4
	c-0.1-0.2-0.1-0.5,0-0.7l6.4-10.8C10.2,4.2,10.5,4,10.8,4c0,0,0,0,0,0c0.3,0,0.5,0.1,0.7,0.4l6.4,10.8C18,15.5,18,15.7,17.8,15.9z"
	/>
</svg>
