<?xml version="1.0" encoding="utf-8"?>
<!-- Generator: Adobe Illustrator 26.5.1, SVG Export Plug-In . SVG Version: 6.00 Build 0)  -->
<svg version="1.1" id="Layer_1" xmlns="http://www.w3.org/2000/svg" xmlns:xlink="http://www.w3.org/1999/xlink" x="0px" y="0px"
	 viewBox="0 0 21 21" style="enable-background:new 0 0 21 21;" xml:space="preserve">
<style type="text/css">
	.st0{fill:none;stroke:#FFFFFF;stroke-linecap:round;stroke-linejoin:round;}
</style>
<g transform="translate(4 3)">
	<path class="st0" d="M1.2,6.2C2,6.1,2.7,6.5,3,7.2l0.5,1.3v-6c0-0.6,0.4-1,1-1s1,0.4,1,1V1c0-0.6,0.4-1,1-1s1,0.4,1,1v1
		c0-0.6,0.4-1,1-1s1,0.4,1,1v1.5c0-0.6,0.4-1,1-1c0.6,0,1,0.4,1,1v8c0,2.2-1.8,4-4,4c-2.4,0-4.4-1.6-5-3.9l0-0.1L0.6,7.6
		C0.3,7.2,0.5,6.6,1,6.3C1.1,6.3,1.2,6.3,1.2,6.2z"/>
	<path class="st0" d="M5.5,1.5v6"/>
	<path class="st0" d="M7.5,1.5v5"/>
	<path class="st0" d="M9.5,3.5v4"/>
</g>
</svg>
