<?xml version="1.0" encoding="utf-8"?>
<!-- Generator: Adobe Illustrator 27.0.0, SVG Export Plug-In . SVG Version: 6.00 Build 0)  -->
<svg version="1.1" id="Layer_1" xmlns="http://www.w3.org/2000/svg" xmlns:xlink="http://www.w3.org/1999/xlink" x="0px" y="0px"
	 viewBox="0 0 21 21" style="enable-background:new 0 0 21 21;" xml:space="preserve">
<style type="text/css">
	.st0{fill:#FFFFFF;}
</style>
<path class="st0" d="M15.2,5.4c-0.2,0-0.5,0.1-0.7,0.2c0-0.8-0.7-1.5-1.6-1.5c-0.3,0-0.5,0.1-0.8,0.2c-0.2-0.6-0.8-1.1-1.5-1.1
	c-0.7,0-1.3,0.5-1.5,1.1C8.9,4.1,8.6,4.1,8.3,4.1c-0.9,0-1.6,0.7-1.6,1.6V12l-0.9-1.1c-0.3-0.4-0.8-0.6-1.2-0.6
	c-0.9,0-1.6,0.7-1.6,1.6c0,0.3,0.1,0.7,0.3,1l2.5,3.3c0.8,1.1,2.1,1.8,3.5,1.8h2.9c2.5,0,4.6-2.1,4.6-4.6V7
	C16.8,6.1,16.1,5.4,15.2,5.4z M15.9,13.3c0,2-1.6,3.7-3.7,3.7H9.3c-1.1,0-2.1-0.5-2.7-1.4l-2.5-3.3C4,12.1,3.9,12,3.9,11.8
	c0-0.4,0.3-0.6,0.6-0.6c0.2,0,0.4,0.1,0.5,0.3l1,1.3c0.2,0.2,0.5,0.4,0.7,0.4c0.1,0,0.8-0.1,0.8-0.8c0,0,0,0,0,0V5.7
	C7.6,5.3,7.9,5,8.3,5S9,5.3,9,5.7L9,10c0,0.3,0.2,0.5,0.5,0.5c0.3,0,0.5-0.2,0.5-0.5l0-4.4c0,0,0,0,0,0V4.7c0-0.4,0.3-0.7,0.7-0.7
	c0.4,0,0.7,0.3,0.7,0.7l0,5.3c0,0.3,0.2,0.5,0.5,0.5c0.3,0,0.5-0.2,0.5-0.5l0-4.4c0-0.4,0.3-0.7,0.7-0.7c0.4,0,0.7,0.3,0.7,0.7V10
	c0,0.3,0.2,0.5,0.5,0.5s0.5-0.2,0.5-0.5V7c0-0.4,0.3-0.7,0.7-0.7c0.4,0,0.7,0.3,0.7,0.7L15.9,13.3L15.9,13.3z"/>
</svg>
