<?xml version="1.0" encoding="utf-8"?>
<!-- Generator: Adobe Illustrator 27.0.0, SVG Export Plug-In . SVG Version: 6.00 Build 0)  -->
<svg version="1.1" id="Layer_1" xmlns="http://www.w3.org/2000/svg" xmlns:xlink="http://www.w3.org/1999/xlink" x="0px" y="0px"
	 viewBox="0 0 21 21" style="enable-background:new 0 0 21 21;" xml:space="preserve">
<style type="text/css">
	.st0{fill:#FFFFFF;}
	.st1{opacity:0.25;enable-background:new    ;}
</style>
<path class="st0" d="M12,3.3l0.9,1.9l-2.6,1.7l1.5,3.2L8.1,6.5l2.6-1.7l-1-1.5H12z"/>
<path class="st1" d="M13.9,18.7c0,0.1-0.1,0.2-0.2,0.2H7.3c-0.1,0-0.2-0.1-0.2-0.2c0-0.7,0.5-1.2,1.2-1.2h1.2v-3.6
	c-2.1-0.5-3.6-2.4-3.4-4.7l0.5-5.4c0-0.3,0.2-0.4,0.5-0.4h2.6l1,1.5L8.1,6.5l3.7,3.7L10.3,7l2.6-1.7l-0.9-2h1.9
	c0.2,0,0.5,0.2,0.5,0.4l0.5,5.4c0.2,2.3-1.3,4.2-3.4,4.7v3.6h1.2C13.4,17.5,13.9,18,13.9,18.7z"/>
</svg>
