<?xml version="1.0" encoding="utf-8"?>
<!-- Generator: Adobe Illustrator 26.5.1, SVG Export Plug-In . SVG Version: 6.00 Build 0)  -->
<svg version="1.1" id="Layer_1" xmlns="http://www.w3.org/2000/svg" xmlns:xlink="http://www.w3.org/1999/xlink" x="0px" y="0px"
	 viewBox="0 0 21 21" style="enable-background:new 0 0 21 21;" xml:space="preserve">
<style type="text/css">
	.st0{fill:none;stroke:#FFFFFF;stroke-linecap:round;stroke-linejoin:round;}
</style>
<g>
	<circle class="st0" cx="4.4" cy="16.6" r="0.9"/>
	<circle class="st0" cx="8.3" cy="15.2" r="1.4"/>
	<path class="st0" d="M13.9,4.7C13.3,3.6,12.1,3,10.9,3c-1.2,0-2.4,0.6-3,1.7c-2,0.1-3.7,1.7-3.7,3.8c0,2.4,2.2,4.3,4.6,3.7
		c0.5,0.6,1.3,1,2.2,1c0.8,0,1.6-0.3,2.1-0.9c0.3,0.1,0.6,0.1,0.9,0.1c2.1,0,3.8-1.7,3.8-3.8C17.7,6.4,16,4.7,13.9,4.7z"/>
</g>
</svg>
