<?xml version="1.0" encoding="utf-8"?>
<!-- Generator: Adobe Illustrator 27.0.0, SVG Export Plug-In . SVG Version: 6.00 Build 0)  -->
<svg version="1.1" id="Layer_1" xmlns="http://www.w3.org/2000/svg" xmlns:xlink="http://www.w3.org/1999/xlink" x="0px" y="0px"
	 viewBox="0 0 912 912" style="enable-background:new 0 0 912 912;" xml:space="preserve">
<style type="text/css">
	.st0{fill:#FFFFFF;}
</style>
<path class="st0" d="M439,203.4c-141.4,0-256,114.6-256,256s114.6,256,256,256s256-114.6,256-256S580.4,203.4,439,203.4z M439,667.4
	c-114.7,0-208-93.3-208-208s93.3-208,208-208s208,93.3,208,208S553.7,667.4,439,667.4z M479,539.4h-16v-88c0-13.2-10.7-24-24-24h-32
	c-13.2,0-24,10.8-24,24c0,13.2,10.8,24,24,24h8v64h-16c-13.2,0-24,10.8-24,24s10.8,24,24,24h80c13.2,0,24-10.8,24-24
	S492.3,539.4,479,539.4z M439,395.4c17.7,0,32-14.3,32-32c0-17.7-14.3-32-32-32s-32,14.3-32,32C407,381.1,421.3,395.4,439,395.4z"/>
</svg>
