<?xml version="1.0" encoding="utf-8"?>
<!-- Generator: Adobe Illustrator 27.0.0, SVG Export Plug-In . SVG Version: 6.00 Build 0)  -->
<svg version="1.1" id="Layer_1" xmlns="http://www.w3.org/2000/svg" xmlns:xlink="http://www.w3.org/1999/xlink" x="0px" y="0px"
	 viewBox="0 0 21 21" style="enable-background:new 0 0 21 21;" xml:space="preserve">
<style type="text/css">
	.st0{opacity:0.9;fill:#FFFFFF;}
	.st1{opacity:0.3;fill:#FFFFFF;}
	.st2{fill:#3AF062;}
</style>
<path class="st0" d="M12.9,14.5v1.8c0,0.2-0.1,0.3-0.2,0.4l-0.5,0.7c-0.1,0.1-0.4,0.3-0.7,0.3H9.7c-0.3,0-0.6-0.2-0.8-0.3l-0.5-0.7
	c-0.1-0.2-0.2-0.3-0.2-0.4v-1.8L12.9,14.5L12.9,14.5z"/>
<path class="st1" d="M10.5,3.2c-3,0-5.1,2.4-5.1,5.1c0,1.3,0.5,2.5,1.3,3.4c0.5,0.6,1.2,1.7,1.5,2.7l0,0h4.7l0,0
	c0.3-1,1-2.1,1.5-2.7c0.8-0.9,1.3-2.1,1.3-3.4C15.7,5.5,13.3,3.2,10.5,3.2z"/>
<path class="st2" d="M10.5,6C9.2,6,8.2,7.1,8.2,8.3c0,0.3-0.2,0.5-0.5,0.5S7.2,8.6,7.2,8.3C7.2,6.5,8.7,5,10.5,5
	C10.8,5,11,5.2,11,5.5C11,5.8,10.8,6,10.5,6z"/>
</svg>
