<?xml version="1.0" encoding="utf-8"?>
<!-- Generator: Adobe Illustrator 26.5.1, SVG Export Plug-In . SVG Version: 6.00 Build 0)  -->
<svg version="1.1" id="Layer_1" xmlns="http://www.w3.org/2000/svg" xmlns:xlink="http://www.w3.org/1999/xlink" x="0px" y="0px"
	 viewBox="0 0 21 21" style="enable-background:new 0 0 21 21;" xml:space="preserve">
<style type="text/css">
	.st0{fill:none;stroke:#FFFFFF;stroke-linecap:round;stroke-linejoin:round;}
</style>
<g>
	<line class="st0" x1="14.1" y1="9" x2="14.1" y2="9"/>
	<line class="st0" x1="14.2" y1="9.1" x2="14.1" y2="9"/>
	<path class="st0" d="M14.1,9.3c-0.3-1.8-1.8-3.2-3.6-3.2S7.1,7.5,6.9,9.3l0,0.1c-0.1,1,0.1,2,0.7,2.8c0.4,0.5,0.6,0.9,0.6,1.3v1.1
		c0,0.3,0.2,0.5,0.5,0.5h3.7c0.3,0,0.5-0.2,0.5-0.5v-1.1c0-0.4,0.2-0.9,0.6-1.3C14,11.4,14.3,10.4,14.1,9.3"/>
	<line class="st0" x1="10.5" y1="3.1" x2="10.5" y2="4.9"/>
	<line class="st0" x1="16.1" y1="5.4" x2="14.7" y2="6.8"/>
	<line class="st0" x1="17.5" y1="10" x2="15.6" y2="10"/>
	<line class="st0" x1="6.3" y1="6.8" x2="4.9" y2="5.4"/>
	<line class="st0" x1="5.4" y1="10" x2="3.5" y2="10"/>
	<line class="st0" x1="9" y1="16.6" x2="12" y2="16.6"/>
	<line class="st0" x1="9" y1="17.9" x2="12" y2="17.9"/>
</g>
</svg>
