<?xml version="1.0" encoding="utf-8"?>
<!-- Generator: Adobe Illustrator 27.0.0, SVG Export Plug-In . SVG Version: 6.00 Build 0)  -->
<svg version="1.1" id="Layer_1" xmlns="http://www.w3.org/2000/svg" xmlns:xlink="http://www.w3.org/1999/xlink" x="0px" y="0px"
	 viewBox="0 0 21 21" style="enable-background:new 0 0 21 21;" xml:space="preserve">
<style type="text/css">
	.st0{fill:#FFFFFF;}
</style>
<path class="st0" d="M12.3,15.1H8.7c-0.3,0-0.5,0.2-0.5,0.5l0,0.7c0,0.2,0.1,0.4,0.2,0.5l0.5,0.7c0.2,0.2,0.5,0.4,0.8,0.4h1.8
	c0.3,0,0.6-0.2,0.8-0.4l0.5-0.7c0.1-0.1,0.2-0.4,0.2-0.5l0-0.6C12.8,15.3,12.6,15.1,12.3,15.1z M11.9,16.2l-0.5,0.7c0,0,0,0,0,0
	l-1.7,0c0,0,0,0,0,0c0,0,0,0,0,0l-0.5-0.7l0-0.2h2.8L11.9,16.2C11.9,16.2,11.9,16.2,11.9,16.2C11.9,16.2,11.9,16.2,11.9,16.2z
	 M14.1,4.6c-1-1-2.3-1.5-3.6-1.5c-2.8,0-5.1,2.3-5.1,5.1c0,1.2,0.4,2.4,1.3,3.4c0.4,0.4,1,1.4,1.3,2.2c0,0.3,0.3,0.4,0.5,0.4
	c0.3,0,0.4-0.3,0.4-0.5l0-0.1c-0.3-1-1-2.1-1.5-2.6c-0.7-0.8-1-1.7-1-2.8c0-2.3,1.8-4.2,4.1-4.2h0c1.1,0,2.1,0.4,2.9,1.2
	c0.8,0.8,1.2,1.8,1.2,3c0,1-0.4,2-1,2.8c-0.4,0.5-1.2,1.6-1.5,2.6l0,0.1c0,0.3,0.1,0.5,0.4,0.5c0,0,0,0,0.1,0c0.2,0,0.4-0.1,0.4-0.4
	c0.2-0.8,0.9-1.8,1.3-2.2c0.8-0.9,1.3-2.1,1.3-3.4C15.6,6.9,15,5.6,14.1,4.6z M11,5.4C11,5.2,10.8,5,10.5,5C8.7,5,7.3,6.4,7.3,8.2
	c0,0.3,0.2,0.5,0.5,0.5c0.3,0,0.5-0.2,0.5-0.5c0-1.3,1-2.3,2.3-2.3C10.8,5.9,11,5.7,11,5.4z"/>
</svg>
