<?xml version="1.0" encoding="utf-8"?>
<!-- Generator: Adobe Illustrator 27.0.0, SVG Export Plug-In . SVG Version: 6.00 Build 0)  -->
<svg version="1.1" id="Layer_1" xmlns="http://www.w3.org/2000/svg" xmlns:xlink="http://www.w3.org/1999/xlink" x="0px" y="0px"
	 viewBox="0 0 21 21" style="enable-background:new 0 0 21 21;" xml:space="preserve">
<style type="text/css">
	.st0{fill:#FFFFFF;}
	.st1{opacity:0.15;enable-background:new    ;}
</style>
<path class="st0" d="M10.5,11.4c0.4,0,0.7-0.3,0.7-0.7V7.4c0-0.4-0.3-0.7-0.7-0.7c-0.4,0-0.7,0.3-0.7,0.7v3.3
	C9.8,11.1,10.1,11.4,10.5,11.4z M10.5,12.4c-0.5,0-1,0.4-1,1s0.4,1,1,1s1-0.4,1-1S11,12.4,10.5,12.4z"/>
<path class="st1" d="M17.7,9.5l-6.2-6.2c-0.6-0.5-1.5-0.5-2,0L3.3,9.5c-0.6,0.5-0.6,1.5,0,2l6.2,6.2c0.5,0.6,1.5,0.6,2,0l6.2-6.2
	C18.2,11,18.2,10,17.7,9.5z M9.8,7.4c0-0.4,0.3-0.7,0.7-0.7c0.4,0,0.7,0.3,0.7,0.7v3.3c0,0.4-0.3,0.7-0.7,0.7
	c-0.4,0-0.7-0.3-0.7-0.7V7.4z M10.5,14.3c-0.5,0-1-0.4-1-1s0.4-1,1-1s1,0.4,1,1S11,14.3,10.5,14.3z"/>
</svg>
